<mxfile host="app.diagrams.net" modified="2023-04-01T21:51:10.878Z" agent="Mozilla/5.0 (Windows NT 10.0; Win64; x64) AppleWebKit/537.36 (KHTML, like Gecko) Chrome/111.0.0.0 Safari/537.36" version="21.1.2" etag="MBCWAsD5KWK4gez0-6op" type="github">
  <diagram name="PÃ¡gina-1" id="p7So5Uww4GExkY_wd1IA">
    <mxGraphModel>
      <root>
        <mxCell id="0" />
        <mxCell id="1" parent="0" />
      </root>
    </mxGraphModel>
  </diagram>
</mxfile>
